<svg width="24" height="24" viewBox="0 0 24 24" fill="none" xmlns="http://www.w3.org/2000/svg">
<g clip-path="url(#clip0_33462_171921)">
<path d="M0.618094 7.6671C0.0584789 9.53484 1.81544 10.6872 1.81544 10.6872C4.04949 12.1524 6.62513 12.1396 9.18136 11.9538L9.1968 12.0491C6.86875 12.8012 4.32356 13.6521 2.90996 15.8045C2.47303 16.4696 2.17337 17.313 2.31857 18.1158C2.45097 18.8479 2.94129 19.5068 3.60462 19.8436C4.26795 20.1808 5.08928 20.1883 5.75835 19.863L5.74687 19.9208C5.74687 19.9208 5.51385 21.8406 7.35775 22.4753C9.20122 23.1099 10.4242 21.4015 10.4242 21.4015C11.6603 19.6737 12.442 17.5592 12.6732 15.477C13.7558 18.1661 14.319 18.6145 13.8512 23.4655C13.7995 23.7034 13.9509 23.9386 14.1892 23.9902C14.2206 23.9973 14.2523 23.9999 14.2832 23.9999C14.4862 23.9999 14.6694 23.8592 14.7144 23.6522C15.3067 18.7883 14.6072 17.8311 13.476 15.0789C14.6244 16.8425 16.0772 18.4044 18.0831 19.2729C18.0831 19.2729 20.0113 20.1079 21.2647 18.6145C22.5181 17.121 21.33 15.5953 21.33 15.5953L21.2903 15.5516C22.0313 15.4854 22.7317 15.056 23.1267 14.4257C23.5217 13.7951 23.6029 12.9782 23.3394 12.2822C23.0504 11.5191 22.3592 10.9506 21.6421 10.6055C19.322 9.4885 16.7022 10.0697 14.319 10.6236L14.2832 10.534C16.5702 9.37684 18.7848 8.06166 19.9451 5.65549C19.9451 5.65549 20.8578 3.76303 19.4164 2.45005C17.975 1.13708 16.4021 2.26249 16.4021 2.26249L16.3571 2.30044C16.3209 1.55723 15.9206 0.840497 15.3067 0.419903C14.6928 -0.000691052 13.8794 -0.114556 13.1737 0.120236C12.3996 0.377977 11.8038 1.04528 11.4295 1.74789C10.2194 4.02077 10.6938 6.66218 11.1506 9.0657L11.1113 9.08159C10.2653 6.78575 9.31199 4.27719 7.10398 2.9523C6.42168 2.54273 5.56681 2.27749 4.77063 2.45491C4.04419 2.61688 3.40602 3.13368 3.0962 3.80981C2.78638 4.48638 2.81242 5.30727 3.16417 5.96266L3.10591 5.95339C3.10547 5.95427 1.17771 5.79936 0.618094 7.6671Z" fill="black"/>
</g>
<defs>
<clipPath id="clip0_33462_171921">
<rect width="24" height="24" fill="white"/>
</clipPath>
</defs>
</svg>
